<svg id="Layer_1" data-name="Layer 1" xmlns="http://www.w3.org/2000/svg" viewBox="0 0 397.5 256.97"><defs><style>.cls-1,.cls-24{fill:none;stroke:#231f20;stroke-miterlimit:10;}.cls-10,.cls-2{font-size:12px;fill:#231f20;}.cls-2{font-family:MyriadPro-Bold, Myriad Pro;font-weight:700;}.cls-3{letter-spacing:0em;}.cls-4{letter-spacing:0.02em;}.cls-5{letter-spacing:-0.01em;}.cls-6{letter-spacing:0em;}.cls-7{letter-spacing:-0.01em;}.cls-8{letter-spacing:-0.01em;}.cls-9{letter-spacing:-0.01em;}.cls-10{font-family:MyriadPro-Regular, Myriad Pro;}.cls-11{letter-spacing:-0.03em;}.cls-12{letter-spacing:0em;}.cls-13{letter-spacing:-0.01em;}.cls-14{letter-spacing:0em;}.cls-15{letter-spacing:-0.01em;}.cls-16{letter-spacing:0.01em;}.cls-17{letter-spacing:0.02em;}.cls-18{letter-spacing:-0.01em;}.cls-19{letter-spacing:0em;}.cls-20{letter-spacing:0em;}.cls-21{letter-spacing:0.01em;}.cls-22{letter-spacing:-0.01em;}.cls-23{letter-spacing:-0.03em;}.cls-24{stroke-width:2px;}</style></defs><title>electron_parts</title><g id="Electron"><path class="cls-1" d="M274.84,180.41c-5.67-1-10.33,0-12.13,3-1.33,2.28-.86,5.34,1,8.55m3.08,4.11a38.45,38.45,0,0,0,9.13,7.13c8.74,5,17.82,6.2,22.13,3.29m4-1.62a2.36,2.36,0,1,0-2.36,2.33,2.35,2.35,0,0,0,2.36-2.33Z" transform="translate(-86 -170.03)"/><path class="cls-1" d="M296.44,195.37c3.72-4.35,5.18-8.82,3.39-11.89-1.31-2.25-4.15-3.38-7.79-3.43m-5.21.56a38.42,38.42,0,0,0-10.9,4.29c-9,5.15-14.66,12.61-13.89,17.79m.78,4.55a2.34,2.34,0,1,0-2.36-2.33,2.34,2.34,0,0,0,2.36,2.33Z" transform="translate(-86 -170.03)"/><path class="cls-1" d="M272.57,206.43c1.94,5.37,5.12,8.87,8.71,8.87,2.6,0,5-1.84,6.84-4.89m2.25-5.08A38.1,38.1,0,0,0,292,194.09c0-10.14-3.58-18.61-8.38-20.72m-2.33,1.83a2.34,2.34,0,1,0-2.36-2.33A2.35,2.35,0,0,0,281.28,175.2Z" transform="translate(-86 -170.03)"/><path class="cls-1" d="M281.74,196.17a2.16,2.16,0,0,1-2.57-1.63,2.16,2.16,0,1,1,2.57,1.63Z" transform="translate(-86 -170.03)"/></g><text class="cls-2" transform="translate(174.4 62.78)"><tspan class="cls-3">E</tspan><tspan x="6.46" y="0">le</tspan><tspan class="cls-4" x="16.09" y="0">c</tspan><tspan x="21.7" y="0">t</tspan><tspan class="cls-5" x="26.1" y="0">r</tspan><tspan x="30.56" y="0">on</tspan></text><text class="cls-2" transform="translate(12 122.47)"><tspan class="cls-6">M</tspan><tspan x="10.19" y="0">ain </tspan><tspan class="cls-7" x="29.27" y="0">P</tspan><tspan class="cls-5" x="36.13" y="0">r</tspan><tspan class="cls-6" x="40.6" y="0">o</tspan><tspan class="cls-8" x="47.56" y="0">c</tspan><tspan x="52.84" y="0">ess</tspan></text><text class="cls-2" transform="translate(253 122.47)">Rende<tspan class="cls-5" x="33.97" y="0">r</tspan><tspan x="38.44" y="0">er </tspan><tspan class="cls-9" x="51.76" y="0">P</tspan><tspan class="cls-5" x="58.62" y="0">r</tspan><tspan class="cls-6" x="63.08" y="0">o</tspan><tspan class="cls-8" x="70.04" y="0">c</tspan><tspan x="75.32" y="0">ess</tspan></text><text class="cls-10" transform="translate(12 153.97)"><tspan class="cls-11">F</tspan><tspan class="cls-12" x="5.53" y="0">ile s</tspan><tspan class="cls-13" x="24.48" y="0">y</tspan><tspan x="30.06" y="0">s</tspan><tspan class="cls-13" x="34.81" y="0">t</tspan><tspan class="cls-14" x="38.71" y="0">em a</tspan><tspan class="cls-15" x="63.06" y="0">cc</tspan><tspan x="73.67" y="0">ess</tspan><tspan class="cls-8" x="0" y="28.8">C</tspan><tspan x="6.83" y="28.8">ompiled </tspan><tspan class="cls-16" x="51.22" y="28.8">M</tspan><tspan x="60.94" y="28.8">odule suppo</tspan><tspan class="cls-17" x="123.9" y="28.8">r</tspan><tspan x="128.11" y="28.8">t</tspan><tspan class="cls-8" x="0" y="57.6">C</tspan><tspan x="6.83" y="57.6">ommonJS </tspan><tspan class="cls-16" x="59.58" y="57.6">M</tspan><tspan x="69.3" y="57.6">odules</tspan></text><text class="cls-10" transform="translate(253 153.97)">HTML &amp; CSS <tspan class="cls-3" x="62.78" y="0">R</tspan><tspan class="cls-14" x="69.29" y="0">ende</tspan><tspan class="cls-18" x="94.74" y="0">r</tspan><tspan x="98.54" y="0">er</tspan><tspan class="cls-19" x="0" y="28.8">D</tspan><tspan x="8.04" y="28.8">ocume</tspan><tspan class="cls-20" x="42.64" y="28.8">n</tspan><tspan x="49.25" y="28.8">t Obje</tspan><tspan class="cls-21" x="79.79" y="28.8">c</tspan><tspan x="85.32" y="28.8">t </tspan><tspan class="cls-16" x="91.83" y="28.8">M</tspan><tspan x="101.55" y="28.8">odel </tspan><tspan x="0" y="43.2">(DOM) </tspan><tspan class="cls-22" x="35.27" y="43.2">A</tspan><tspan class="cls-13" x="42.47" y="43.2">cc</tspan><tspan x="53.08" y="43.2">ess</tspan><tspan class="cls-23"><tspan x="0" y="72">W</tspan><tspan class="cls-14" x="9.76" y="72">eb API</tspan></tspan></text><rect class="cls-24" x="1" y="101.47" width="154.5" height="154.5"/><rect class="cls-24" x="242" y="101.47" width="154.5" height="154.5"/><line class="cls-24" x1="78.25" y1="101.47" x2="195.93" y2="70.97"/><line class="cls-24" x1="319.25" y1="101.47" x2="195.93" y2="70.97"/></svg>